
<svg height="800px" width="800px" version="1.1" id="Layer_1" xmlns="http://www.w3.org/2000/svg" xmlns:xlink="http://www.w3.org/1999/xlink" viewBox="0 0 512 512" xml:space="preserve" fill="#000000">

<g id="SVGRepo_bgCarrier" stroke-width="0"/>

<g id="SVGRepo_tracerCarrier" stroke-linecap="round" stroke-linejoin="round"/>

<g id="SVGRepo_iconCarrier"> <path d="M256,320.368c-0.963,0-1.943-0.104-2.89-0.296c-0.947-0.193-1.882-0.474-2.786-0.845c-0.891-0.37-1.749-0.83-2.549-1.363 c-0.816-0.533-1.572-1.156-2.254-1.837c-0.682-0.682-1.304-1.437-1.837-2.252c-0.532-0.8-0.993-1.66-1.363-2.564 c-0.37-0.889-0.667-1.823-0.843-2.771c-0.194-0.948-0.296-1.926-0.296-2.89s0.102-1.941,0.296-2.904 c0.176-0.934,0.473-1.867,0.843-2.771c0.37-0.889,0.831-1.749,1.363-2.549c0.533-0.815,1.156-1.571,1.837-2.252 c0.682-0.696,1.437-1.304,2.254-1.852c0.8-0.533,1.658-0.993,2.549-1.363c0.904-0.37,1.838-0.652,2.786-0.845 c1.897-0.385,3.868-0.385,5.779,0c0.948,0.193,1.882,0.474,2.77,0.845c0.904,0.37,1.763,0.83,2.564,1.363 c0.815,0.548,1.571,1.156,2.252,1.852c0.683,0.682,1.306,1.437,1.837,2.252c0.533,0.8,0.993,1.66,1.363,2.549 c0.37,0.904,0.667,1.837,0.845,2.771c0.193,0.963,0.296,1.941,0.296,2.904c0,0.963-0.104,1.941-0.296,2.89 c-0.178,0.948-0.474,1.882-0.845,2.771c-0.37,0.904-0.83,1.763-1.363,2.564c-0.532,0.815-1.154,1.571-1.837,2.252 c-0.682,0.682-1.437,1.304-2.252,1.837c-0.8,0.533-1.66,0.993-2.564,1.363c-0.889,0.37-1.821,0.652-2.77,0.845 C257.94,320.264,256.962,320.368,256,320.368z"/> <path d="M374.368,484.853c-0.815-0.533-1.674-0.993-2.564-1.363c-0.889-0.37-1.821-0.652-2.77-0.845 c-1.912-0.385-3.882-0.385-5.794,0c-0.95,0.193-1.869,0.474-2.771,0.845c-0.891,0.37-1.75,0.83-2.564,1.363 c-0.8,0.548-1.556,1.156-2.238,1.837c-0.696,0.682-1.304,1.452-1.852,2.252c-0.533,0.815-0.993,1.674-1.363,2.564 c-0.37,0.889-0.652,1.823-0.845,2.771c-0.193,0.963-0.28,1.926-0.28,2.904c0,0.963,0.089,1.926,0.28,2.89 c0.193,0.948,0.474,1.882,0.845,2.771c0.37,0.889,0.83,1.749,1.363,2.564c0.548,0.8,1.156,1.571,1.852,2.252 c0.682,0.682,1.437,1.304,2.238,1.837c0.815,0.533,1.674,0.993,2.564,1.363c0.902,0.37,1.821,0.652,2.771,0.845 c0.962,0.193,1.941,0.296,2.904,0.296c0.962,0,1.941-0.104,2.89-0.296c0.948-0.193,1.882-0.474,2.77-0.845 c0.891-0.37,1.75-0.83,2.564-1.363c0.8-0.533,1.571-1.156,2.252-1.837c2.756-2.771,4.343-6.579,4.343-10.477 c0-3.912-1.586-7.72-4.343-10.491C375.939,486.008,375.169,485.401,374.368,484.853z"/> <path d="M352.452,416.895c0.37,0.889,0.83,1.749,1.363,2.564c0.548,0.8,1.156,1.556,1.852,2.252 c0.682,0.682,1.437,1.304,2.238,1.837c0.815,0.533,1.674,0.993,2.564,1.363c0.902,0.37,1.821,0.652,2.771,0.845 c0.962,0.193,1.926,0.282,2.904,0.282c0.962,0,1.941-0.089,2.89-0.282c0.948-0.193,1.882-0.474,2.77-0.845 c0.891-0.37,1.75-0.83,2.564-1.363c0.8-0.533,1.571-1.156,2.252-1.837c2.756-2.771,4.343-6.579,4.343-10.491 c0-0.963-0.104-1.926-0.296-2.89c-0.193-0.948-0.474-1.882-0.845-2.771c-0.37-0.889-0.83-1.749-1.363-2.564 c-0.532-0.8-1.156-1.571-1.837-2.252c-0.682-0.682-1.451-1.304-2.252-1.837c-0.815-0.533-1.674-0.993-2.564-1.363 c-0.889-0.37-1.821-0.652-2.77-0.845c-1.912-0.385-3.882-0.385-5.794,0c-0.95,0.193-1.869,0.474-2.771,0.845 c-0.891,0.37-1.75,0.83-2.564,1.363c-0.8,0.533-1.556,1.156-2.238,1.837c-0.696,0.682-1.304,1.452-1.852,2.252 c-0.533,0.815-0.993,1.674-1.363,2.564c-0.37,0.889-0.652,1.823-0.845,2.771c-0.193,0.963-0.28,1.926-0.28,2.89 c0,0.978,0.089,1.941,0.28,2.904C351.8,415.072,352.081,416.006,352.452,416.895z"/> <path d="M336.503,439.384h-65.684v-13.337h50.866c8.183,0,14.818-6.634,14.818-14.818c0-8.184-6.636-14.818-14.818-14.818h-50.866 V350c0-8.184-6.636-14.818-14.818-14.818c-8.183,0-14.818,6.634-14.818,14.818v147.175c0,8.184,6.636,14.818,14.818,14.818 c0.083,0,0.164-0.012,0.247-0.012c0.083,0.001,0.163,0.012,0.247,0.012h65.191c8.183,0,14.818-6.634,14.818-14.818 c0-8.184-6.636-14.818-14.818-14.818H270.82v-13.337h65.684c8.183,0,14.818-6.634,14.818-14.818 C351.323,446.018,344.686,439.384,336.503,439.384z"/> <circle style="fill:#005BFF;" cx="256.003" cy="138.256" r="123.438"/> <circle style="fill:#00a2ff;" cx="256.003" cy="138.256" r="60.815"/> <path d="M256,0c-76.235,0-138.258,62.021-138.258,138.256S179.763,276.514,256,276.514s138.258-62.021,138.258-138.258 C394.256,62.021,332.235,0,256,0z M256,246.877c-59.893,0-108.621-48.728-108.621-108.621S196.107,29.637,256,29.637 s108.621,48.726,108.621,108.619S315.893,246.877,256,246.877z"/> <path d="M256,62.62c-41.708,0-75.638,33.93-75.638,75.636s33.93,75.636,75.638,75.636s75.638-33.93,75.638-75.636 S297.707,62.62,256,62.62z M256,184.257c-25.365,0-46.001-20.636-46.001-45.999S230.635,92.258,256,92.258 s46.001,20.636,46.001,45.999S281.365,184.257,256,184.257z"/> </g>

</svg>